<svg xmlns="http://www.w3.org/2000/svg" xmlns:xlink="http://www.w3.org/1999/xlink" width="500" zoomAndPan="magnify" viewBox="0 0 375 374.999991" height="500" preserveAspectRatio="xMidYMid meet" version="1.0"><defs><clipPath id="96b85a9d0d"><path d="M 187.5 0 C 83.945312 0 0 83.945312 0 187.5 C 0 291.054688 83.945312 375 187.5 375 C 291.054688 375 375 291.054688 375 187.5 C 375 83.945312 291.054688 0 187.5 0 Z M 187.5 0 " clip-rule="nonzero"/></clipPath><clipPath id="0793d5b946"><path d="M 9.496094 130.699219 L 365.746094 130.699219 L 365.746094 243.949219 L 9.496094 243.949219 Z M 9.496094 130.699219 " clip-rule="nonzero"/></clipPath><clipPath id="5767fe1ee0"><path d="M 108.007812 217.261719 C 108.070312 217.15625 108.046875 217.015625 107.949219 216.9375 C 103.304688 213.054688 104.3125 209.453125 101.566406 205.300781 C 100.824219 204.175781 98.886719 202.375 97.710938 201.699219 C 97.613281 201.644531 97.515625 201.59375 97.417969 201.542969 C 96.125 205.964844 94.003906 210.101562 91.167969 213.738281 C 91.546875 214.796875 92.050781 215.8125 92.667969 216.757812 C 93.410156 217.882812 95.347656 219.683594 96.523438 220.355469 C 98.457031 221.464844 100.753906 221.761719 102.910156 221.179688 C 105.0625 220.601562 106.898438 219.191406 108.007812 217.261719 Z M 36.167969 236.976562 C 36.277344 237.039062 36.414062 237.015625 36.496094 236.917969 C 40.394531 232.289062 44.007812 233.292969 48.175781 230.558594 C 49.304688 229.816406 51.113281 227.886719 51.785156 226.71875 C 51.84375 226.621094 51.894531 226.523438 51.949219 226.421875 C 47.511719 225.136719 43.355469 223.023438 39.707031 220.199219 C 38.644531 220.578125 37.625 221.078125 36.675781 221.695312 C 35.546875 222.4375 33.738281 224.363281 33.0625 225.535156 C 31.953125 227.460938 31.65625 229.75 32.238281 231.898438 C 32.820312 234.042969 34.234375 235.871094 36.167969 236.976562 Z M 16.382812 165.398438 C 16.320312 165.507812 16.34375 165.648438 16.441406 165.726562 C 21.085938 169.609375 20.082031 173.210938 22.824219 177.363281 C 23.566406 178.488281 25.503906 180.289062 26.675781 180.960938 C 26.777344 181.019531 26.875 181.070312 26.972656 181.125 C 28.265625 176.699219 30.390625 172.5625 33.226562 168.925781 C 32.847656 167.867188 32.34375 166.851562 31.726562 165.90625 C 30.984375 164.78125 29.046875 162.980469 27.871094 162.308594 C 23.84375 160.003906 18.703125 161.386719 16.386719 165.398438 Z M 107.640625 164.773438 C 107.578125 164.664062 107.449219 164.617188 107.332031 164.660156 C 101.628906 166.730469 99.003906 164.058594 94.023438 164.351562 C 92.671875 164.429688 90.140625 165.199219 88.96875 165.875 C 88.867188 165.933594 88.769531 165.996094 88.671875 166.054688 C 91.875 169.378906 94.414062 173.277344 96.164062 177.542969 C 97.273438 177.746094 98.40625 177.816406 99.535156 177.757812 C 100.882812 177.679688 103.417969 176.910156 104.585938 176.234375 C 108.605469 173.910156 109.972656 168.777344 107.640625 164.773438 Z M 88.863281 236.617188 C 88.972656 236.554688 89.019531 236.425781 88.976562 236.304688 C 86.902344 230.625 89.570312 228.011719 89.289062 223.046875 C 89.207031 221.703125 88.433594 219.179688 87.753906 218.011719 C 87.699219 217.914062 87.636719 217.816406 87.578125 217.71875 C 84.242188 220.90625 80.328125 223.4375 76.046875 225.179688 C 75.84375 226.289062 75.773438 227.414062 75.832031 228.539062 C 75.910156 229.882812 76.683594 232.40625 77.363281 233.574219 C 78.484375 235.496094 80.324219 236.898438 82.480469 237.46875 C 84.636719 238.039062 86.933594 237.734375 88.863281 236.617188 Z M 16.753906 217.90625 C 16.816406 218.015625 16.949219 218.0625 17.066406 218.019531 C 22.765625 215.949219 25.394531 218.609375 30.375 218.328125 C 31.726562 218.25 34.257812 217.480469 35.429688 216.804688 C 35.53125 216.746094 35.625 216.6875 35.722656 216.625 C 32.519531 213.296875 29.976562 209.394531 28.226562 205.125 C 27.117188 204.925781 25.992188 204.851562 24.867188 204.910156 C 23.515625 204.992188 20.984375 205.761719 19.8125 206.4375 C 15.792969 208.761719 14.425781 213.890625 16.757812 217.898438 Z M 114.882812 190.96875 C 114.886719 190.84375 114.796875 190.734375 114.675781 190.714844 C 108.699219 189.664062 107.753906 186.046875 103.304688 183.820312 C 102.09375 183.214844 99.519531 182.621094 98.164062 182.625 C 98.050781 182.625 97.9375 182.625 97.824219 182.625 C 98.917969 187.097656 99.160156 191.734375 98.539062 196.296875 C 99.398438 197.03125 100.34375 197.65625 101.351562 198.167969 C 102.558594 198.773438 105.140625 199.367188 106.492188 199.363281 C 111.132812 199.351562 114.890625 195.59375 114.882812 190.96875 Z M 62.5625 243.828125 C 62.6875 243.828125 62.792969 243.738281 62.816406 243.613281 C 63.871094 237.660156 67.503906 236.730469 69.734375 232.285156 C 70.339844 231.082031 70.9375 228.511719 70.933594 227.164062 C 70.933594 227.050781 70.933594 226.9375 70.933594 226.828125 C 66.445312 227.917969 61.789062 228.15625 57.207031 227.535156 C 56.472656 228.394531 55.84375 229.335938 55.332031 230.339844 C 54.726562 231.546875 54.128906 234.113281 54.132812 235.460938 C 54.136719 237.683594 55.027344 239.816406 56.609375 241.386719 C 58.191406 242.953125 60.332031 243.832031 62.566406 243.828125 Z M 9.507812 191.699219 C 9.503906 191.824219 9.59375 191.933594 9.71875 191.953125 C 15.695312 193.003906 16.636719 196.625 21.089844 198.847656 C 22.296875 199.453125 24.878906 200.042969 26.226562 200.042969 C 26.339844 200.042969 26.453125 200.042969 26.566406 200.042969 C 25.472656 195.570312 25.230469 190.929688 25.855469 186.367188 C 24.996094 185.636719 24.050781 185.011719 23.042969 184.5 C 21.832031 183.894531 19.253906 183.300781 17.902344 183.304688 C 13.257812 183.3125 9.5 187.070312 9.507812 191.699219 Z M 75.878906 153.011719 L 62.074219 153.039062 L 48.269531 153.070312 C 48.308594 170.667969 33.214844 171.832031 33.246094 190.820312 C 33.183594 201.164062 38.695312 210.742188 47.683594 215.917969 C 56.667969 221.097656 67.753906 221.074219 76.71875 215.859375 C 85.683594 210.644531 91.152344 201.039062 91.046875 190.699219 C 91.007812 171.710938 75.910156 170.609375 75.871094 153.011719 Z M 84.554688 194.261719 C 85.804688 190.667969 81.722656 188.171875 80.027344 192.917969 C 77.054688 201.210938 69.648438 207.136719 60.875 208.238281 C 56.613281 208.769531 57.597656 213.304688 60.820312 212.980469 C 71.710938 211.867188 80.964844 204.570312 84.554688 194.269531 Z M 71.578125 144.777344 C 72.277344 144.777344 72.84375 144.210938 72.84375 143.511719 C 72.839844 142.816406 72.277344 142.257812 71.578125 142.253906 L 52.519531 142.292969 C 51.820312 142.296875 51.257812 142.863281 51.257812 143.558594 C 51.261719 144.253906 51.828125 144.816406 52.527344 144.816406 L 71.582031 144.777344 Z M 67.554688 139.207031 C 68.253906 139.203125 68.816406 138.636719 68.820312 137.941406 C 68.816406 137.246094 68.25 136.683594 67.550781 136.683594 L 56.53125 136.707031 C 55.832031 136.710938 55.265625 137.273438 55.265625 137.96875 C 55.269531 138.664062 55.835938 139.226562 56.535156 139.226562 Z M 74.71875 150.351562 C 75.417969 150.347656 75.980469 149.785156 75.984375 149.089844 C 75.976562 148.394531 75.410156 147.835938 74.714844 147.835938 L 49.410156 147.886719 C 48.710938 147.890625 48.148438 148.457031 48.144531 149.152344 C 48.148438 149.847656 48.714844 150.414062 49.414062 150.414062 L 74.71875 150.359375 Z M 135.894531 225.785156 C 135.894531 215.445312 135.421875 198.90625 134.484375 176.171875 C 133.542969 153.4375 132.675781 141.445312 131.871094 140.195312 C 131.871094 137.699219 132.855469 135.785156 134.824219 134.445312 C 135.539062 134 136.546875 133.621094 137.84375 133.308594 C 139.007812 133.011719 140.203125 132.855469 141.402344 132.839844 C 141.941406 132.753906 143.0625 132.707031 144.761719 132.707031 C 146.820312 132.707031 148.296875 133.042969 149.195312 133.710938 C 150.089844 134.378906 150.539062 135.558594 150.535156 137.253906 C 150.535156 138.238281 150.175781 138.972656 149.460938 139.460938 C 148.75 139.949219 147.851562 140.199219 146.777344 140.199219 L 145.4375 140.0625 L 143.535156 140.0625 C 141.03125 140.0625 139.78125 140.554688 139.78125 141.535156 C 139.78125 146.171875 140.09375 152.234375 140.71875 159.722656 C 141.257812 165.964844 141.613281 171.894531 141.792969 177.507812 C 142.417969 177.332031 143.605469 177.042969 145.351562 176.640625 C 147.097656 176.238281 148.414062 176.039062 149.304688 176.039062 C 150.289062 176.039062 151.136719 176.460938 151.855469 177.308594 C 152.550781 178.105469 152.929688 179.128906 152.929688 180.183594 C 152.929688 181.433594 152.347656 182.324219 151.183594 182.859375 C 151.003906 182.945312 150.589844 183.148438 149.90625 183.460938 C 149.078125 183.8125 148.191406 184.015625 147.289062 184.0625 C 146.484375 184.152344 145.144531 184.28125 143.261719 184.457031 L 141.785156 184.457031 C 141.785156 189.804688 142.234375 197.070312 143.128906 206.253906 C 143.933594 215.882812 144.339844 223.148438 144.335938 228.050781 L 144.203125 228.585938 L 144.066406 228.855469 C 144.175781 229.425781 144.222656 230.007812 144.203125 230.59375 C 144.203125 231.753906 143.800781 232.667969 142.996094 233.335938 C 142.1875 234 141.117188 234.335938 139.78125 234.34375 C 137.1875 234.34375 135.890625 231.488281 135.894531 225.785156 Z M 167.570312 235.414062 C 166.140625 234.613281 165.421875 233.675781 165.421875 232.605469 C 165.421875 231.535156 165.691406 230.664062 166.226562 229.996094 C 166.765625 229.332031 167.527344 228.996094 168.507812 228.996094 C 169.402344 228.996094 170.699219 229.351562 172.402344 230.066406 C 174.28125 230.777344 175.445312 231.136719 175.894531 231.136719 C 177.589844 231.136719 179.136719 230.398438 180.523438 228.929688 C 181.910156 227.457031 183.007812 225.519531 183.8125 223.113281 C 185.429688 218.65625 186.234375 214.640625 186.234375 211.074219 C 186.234375 207.242188 185.632812 203.207031 184.421875 198.972656 C 183.195312 194.699219 181.554688 190.554688 179.515625 186.601562 L 177.367188 182.320312 C 175.128906 177.863281 173.40625 174.34375 172.199219 171.753906 C 170.933594 169.03125 169.878906 166.214844 169.039062 163.332031 C 167.695312 159.050781 167.023438 154.90625 167.023438 150.894531 C 167.003906 147.785156 167.574219 144.699219 168.703125 141.800781 C 169.765625 139.023438 171.496094 136.542969 173.734375 134.578125 C 175.976562 132.4375 178.75 131.371094 182.058594 131.367188 C 183.726562 131.386719 185.355469 131.871094 186.753906 132.773438 C 188.277344 133.710938 189.351562 134.890625 189.976562 136.316406 L 187.703125 139.125 C 185.375 139.125 183.632812 138.679688 182.480469 137.789062 C 180.867188 137.96875 179.457031 138.75 178.25 140.128906 C 177.03125 141.523438 176.09375 143.136719 175.488281 144.882812 C 174.960938 146.523438 174.691406 148.238281 174.683594 149.960938 C 174.699219 153.464844 175.171875 156.949219 176.09375 160.328125 C 177 163.757812 178.234375 167.09375 179.785156 170.289062 L 189.179688 189 C 190.789062 192.464844 192.003906 196.097656 192.804688 199.832031 C 193.691406 203.785156 194.140625 207.824219 194.144531 211.875 C 194.164062 217.679688 192.683594 223.390625 189.847656 228.460938 C 188.429688 231.023438 186.402344 233.207031 183.941406 234.8125 C 181.546875 236.363281 178.746094 237.179688 175.890625 237.152344 C 172.667969 237.152344 169.898438 236.570312 167.570312 235.414062 Z M 220.453125 235.546875 C 218.476562 233.941406 216.777344 231.757812 215.351562 228.996094 C 212.757812 224.183594 210.835938 217.585938 209.582031 209.203125 C 208.6875 203.410156 208.015625 196.722656 207.566406 189.144531 L 207.433594 182.054688 L 207.433594 174.832031 C 207.34375 172.515625 207.300781 169.707031 207.300781 166.40625 C 207.269531 161.671875 207.492188 156.9375 207.972656 152.226562 C 208.339844 147.898438 209.238281 143.628906 210.65625 139.519531 C 212.085938 135.871094 214.144531 133.289062 216.828125 131.769531 C 218.347656 131.078125 219.992188 130.710938 221.664062 130.699219 C 226.40625 130.699219 230.164062 132.574219 232.929688 136.316406 C 235.964844 140.492188 238.027344 145.289062 238.972656 150.359375 C 240.402344 156.601562 241.207031 162.574219 241.386719 168.28125 C 241.742188 174.613281 241.921875 180.585938 241.925781 186.203125 L 241.925781 193.828125 C 241.925781 195.34375 241.703125 198.199219 241.253906 202.386719 C 240.925781 205.183594 240.746094 207.996094 240.714844 210.8125 L 240.714844 211.347656 C 240.179688 213.839844 239.914062 216.785156 239.910156 220.171875 C 239.910156 222.667969 239.375 225.253906 238.300781 227.929688 C 237.292969 230.503906 235.734375 232.832031 233.738281 234.75 C 231.769531 236.890625 229.527344 237.957031 227.015625 237.957031 C 224.605469 237.953125 222.417969 237.152344 220.453125 235.546875 Z M 231.863281 225.652344 C 232.9375 222.710938 233.71875 219.121094 234.210938 214.886719 C 234.703125 210.652344 235.128906 205.859375 235.488281 200.507812 C 235.667969 198.191406 235.753906 195.203125 235.753906 191.546875 L 235.621094 179.246094 C 235.441406 174.429688 234.90625 168.414062 234.011719 161.191406 C 233.292969 155.042969 231.953125 149.609375 229.984375 144.882812 C 229.089844 142.648438 227.96875 140.910156 226.625 139.664062 C 225.28125 138.421875 223.851562 137.796875 222.332031 137.789062 C 220.09375 137.789062 218.4375 139.527344 217.367188 143.007812 C 215.972656 146.890625 215.070312 150.933594 214.683594 155.042969 C 214.144531 159.769531 213.832031 164.273438 213.742188 168.550781 L 213.609375 172.960938 C 213.519531 174.210938 213.472656 175.90625 213.476562 178.042969 L 213.476562 178.578125 C 213.476562 184.554688 214.101562 191.90625 215.351562 200.636719 C 216.785156 212.496094 218.886719 220.921875 221.664062 225.914062 C 223.449219 229.035156 225.332031 230.59375 227.300781 230.59375 C 229.089844 230.597656 230.609375 228.949219 231.863281 225.652344 Z M 260.117188 234.410156 C 259.175781 233.566406 258.707031 232.5625 258.707031 231.402344 C 258.742188 230.402344 258.921875 229.410156 259.246094 228.460938 C 259.464844 227.539062 259.597656 226.601562 259.640625 225.652344 C 259.640625 217.71875 259.191406 202.472656 258.296875 179.914062 C 257.402344 160.660156 256.957031 145.457031 256.957031 134.3125 C 256.933594 133.554688 257.285156 132.832031 257.894531 132.375 C 258.546875 131.875 259.355469 131.613281 260.175781 131.636719 C 261.230469 131.628906 262.242188 132.039062 262.996094 132.773438 C 263.773438 133.472656 264.214844 134.472656 264.203125 135.515625 C 264.203125 140.863281 264.472656 148.890625 265.007812 159.585938 C 265.457031 171.449219 265.679688 179.472656 265.679688 183.660156 L 265.8125 185.265625 L 265.8125 188.472656 C 266.078125 196.230469 266.207031 207.820312 266.207031 223.246094 L 266.207031 226.722656 L 276.542969 226.722656 C 278.425781 228.058594 279.363281 229.398438 279.363281 230.734375 C 279.371094 231.699219 279.011719 232.628906 278.355469 233.34375 C 277.683594 234.101562 276.902344 234.480469 276.007812 234.480469 C 275.507812 234.4375 275.011719 234.347656 274.53125 234.210938 L 273.992188 234.078125 C 273.148438 234.183594 272.296875 234.230469 271.445312 234.210938 L 269.164062 234.210938 C 268.449219 234.117188 267.730469 234.074219 267.011719 234.078125 C 266.117188 235.144531 264.867188 235.679688 263.257812 235.683594 C 262.085938 235.671875 260.964844 235.21875 260.117188 234.410156 Z M 314.085938 233.410156 C 313.414062 232.875 313.078125 231.980469 313.078125 230.734375 L 313.078125 213.214844 C 311.914062 212.414062 309.722656 211.699219 306.5 211.074219 C 303.488281 210.476562 300.4375 210.074219 297.375 209.871094 C 296.386719 211.742188 295.671875 214.015625 295.226562 216.691406 L 294.6875 219.363281 C 294.597656 219.992188 294.332031 221.371094 293.882812 223.511719 C 293.5 225.386719 293.003906 227.242188 292.390625 229.058594 C 291.980469 230.335938 291.441406 231.570312 290.78125 232.738281 C 287.378906 232.738281 285.410156 231.847656 284.875 230.0625 C 285.859375 228.636719 286.980469 224.449219 288.234375 217.492188 L 292.664062 193.019531 C 294.632812 181.429688 296.441406 171.535156 298.097656 163.332031 C 299.757812 155.128906 301.523438 148.265625 303.402344 142.734375 C 305.460938 136.585938 307.425781 133.511719 309.308594 133.507812 C 311.1875 133.507812 312.621094 133.863281 313.605469 134.578125 C 313.605469 138.144531 314.453125 146.75 316.152344 160.390625 C 317.945312 173.761719 318.839844 182.902344 318.839844 187.804688 C 318.839844 192.53125 319.332031 199.308594 320.316406 208.132812 C 321.207031 217.136719 321.65625 224.3125 321.65625 229.664062 C 321.65625 232.695312 320.179688 234.210938 317.226562 234.207031 C 315.796875 234.207031 314.75 233.941406 314.078125 233.40625 Z M 312.945312 205.046875 C 312.679688 201.125 312.234375 196.269531 311.601562 190.472656 C 309.542969 170.328125 308.515625 157.980469 308.515625 153.429688 L 308.515625 152.367188 C 307.617188 153.257812 306.386719 157.292969 304.824219 164.46875 C 303.261719 171.644531 301.804688 179.332031 300.460938 187.535156 C 299.121094 195.738281 298.402344 201.179688 298.3125 203.851562 C 302.199219 204.9375 306.222656 205.480469 310.257812 205.457031 C 311.164062 205.429688 312.0625 205.292969 312.933594 205.054688 Z M 357.496094 231.9375 L 357.496094 231.542969 C 357.234375 226.816406 356.429688 221.554688 355.082031 215.761719 C 353.734375 209.96875 351.765625 202.96875 349.175781 194.765625 C 347.199219 188.613281 345.542969 183.085938 344.210938 178.183594 L 344.210938 230.867188 C 344.210938 232.292969 343.964844 233.339844 343.472656 234.007812 C 342.980469 234.675781 342.019531 235.011719 340.585938 235.011719 C 339.511719 235.011719 338.660156 234.675781 338.035156 234.007812 C 337.410156 233.339844 337.09375 232.46875 337.09375 231.398438 L 337.09375 230.332031 L 337.363281 191.015625 C 337.542969 179.425781 337.632812 166.359375 337.632812 151.820312 L 337.632812 135.382812 C 337.632812 134.308594 337.855469 133.574219 338.304688 133.175781 C 338.753906 132.773438 339.6875 132.574219 341.125 132.574219 C 343.25 132.554688 345.355469 132.988281 347.296875 133.851562 C 349.144531 134.675781 350.792969 135.882812 352.128906 137.398438 C 354.894531 140.519531 356.6875 144.261719 357.496094 148.625 C 357.878906 150.652344 358.058594 152.710938 358.035156 154.773438 C 358.023438 156.25 357.910156 157.726562 357.699219 159.1875 C 357.476562 160.792969 357.320312 161.816406 357.230469 162.261719 C 356.910156 163.625 356.507812 164.964844 356.023438 166.273438 C 355.394531 168.058594 354.992188 169.21875 354.816406 169.753906 L 353.203125 173.496094 L 351.863281 176.972656 C 351.949219 180.183594 352.507812 184.238281 353.539062 189.140625 C 354.570312 194.042969 355.710938 198.59375 356.960938 202.785156 C 357.855469 205.730469 359.464844 210.632812 361.792969 217.496094 L 365.683594 229.265625 L 365.683594 229.53125 C 365.710938 230.835938 365.578125 232.140625 365.289062 233.410156 C 365.027344 234.835938 364.085938 235.546875 362.472656 235.550781 C 360.765625 235.546875 359.105469 234.34375 357.496094 231.9375 Z M 348.503906 166.941406 L 350.511719 155.441406 C 350.613281 154.824219 350.65625 154.195312 350.644531 153.570312 C 350.644531 150.984375 350.152344 147.996094 349.167969 144.605469 C 348.703125 143.144531 348 141.765625 347.085938 140.53125 C 346.234375 139.414062 345.363281 138.8125 344.46875 138.722656 L 344.203125 152.097656 C 343.9375 158.070312 343.804688 162.707031 343.804688 166.007812 C 343.804688 169.125 343.851562 171.175781 343.941406 172.15625 C 345.550781 170.5 347.078125 168.757812 348.503906 166.941406 Z M 348.503906 166.941406 " clip-rule="evenodd"/></clipPath><linearGradient x1="-0.0000180961" gradientTransform="matrix(356.182361, 0, 0, 113.127919, 9.506082, 130.700267)" y1="0.5" x2="1.000061" gradientUnits="userSpaceOnUse" y2="0.5" id="17c51c912f"><stop stop-opacity="1" stop-color="rgb(90.19928%, 49.398804%, 13.299561%)" offset="0"/><stop stop-opacity="1" stop-color="rgb(90.19928%, 49.502563%, 13.247681%)" offset="0.03125"/><stop stop-opacity="1" stop-color="rgb(90.19928%, 49.711609%, 13.142395%)" offset="0.0625"/><stop stop-opacity="1" stop-color="rgb(90.19928%, 49.919128%, 13.038635%)" offset="0.09375"/><stop stop-opacity="1" stop-color="rgb(90.19928%, 50.128174%, 12.934875%)" offset="0.125"/><stop stop-opacity="1" stop-color="rgb(90.19928%, 50.335693%, 12.82959%)" offset="0.15625"/><stop stop-opacity="1" stop-color="rgb(90.19928%, 50.544739%, 12.72583%)" offset="0.1875"/><stop stop-opacity="1" stop-color="rgb(90.19928%, 50.752258%, 12.62207%)" offset="0.21875"/><stop stop-opacity="1" stop-color="rgb(90.21759%, 51.016235%, 12.5%)" offset="0.25"/><stop stop-opacity="1" stop-color="rgb(90.263367%, 51.315308%, 12.37793%)" offset="0.265625"/><stop stop-opacity="1" stop-color="rgb(90.319824%, 51.591492%, 12.271118%)" offset="0.28125"/><stop stop-opacity="1" stop-color="rgb(90.377808%, 51.869202%, 12.164307%)" offset="0.296875"/><stop stop-opacity="1" stop-color="rgb(90.434265%, 52.145386%, 12.057495%)" offset="0.3125"/><stop stop-opacity="1" stop-color="rgb(90.490723%, 52.423096%, 11.952209%)" offset="0.328125"/><stop stop-opacity="1" stop-color="rgb(90.54718%, 52.69928%, 11.845398%)" offset="0.34375"/><stop stop-opacity="1" stop-color="rgb(90.603638%, 52.97699%, 11.738586%)" offset="0.359375"/><stop stop-opacity="1" stop-color="rgb(90.661621%, 53.253174%, 11.631775%)" offset="0.375"/><stop stop-opacity="1" stop-color="rgb(90.718079%, 53.530884%, 11.524963%)" offset="0.390625"/><stop stop-opacity="1" stop-color="rgb(90.774536%, 53.808594%, 11.418152%)" offset="0.40625"/><stop stop-opacity="1" stop-color="rgb(90.830994%, 54.084778%, 11.312866%)" offset="0.421875"/><stop stop-opacity="1" stop-color="rgb(90.888977%, 54.362488%, 11.206055%)" offset="0.4375"/><stop stop-opacity="1" stop-color="rgb(90.945435%, 54.638672%, 11.099243%)" offset="0.453125"/><stop stop-opacity="1" stop-color="rgb(90.988159%, 54.855347%, 11.01532%)" offset="0.460937"/><stop stop-opacity="1" stop-color="rgb(91.017151%, 55.072021%, 10.925293%)" offset="0.46875"/><stop stop-opacity="1" stop-color="rgb(91.047668%, 55.351257%, 10.806274%)" offset="0.476562"/><stop stop-opacity="1" stop-color="rgb(91.07666%, 55.630493%, 10.687256%)" offset="0.484375"/><stop stop-opacity="1" stop-color="rgb(91.107178%, 55.909729%, 10.568237%)" offset="0.492187"/><stop stop-opacity="1" stop-color="rgb(91.136169%, 56.188965%, 10.449219%)" offset="0.5"/><stop stop-opacity="1" stop-color="rgb(91.166687%, 56.468201%, 10.3302%)" offset="0.507812"/><stop stop-opacity="1" stop-color="rgb(91.195679%, 56.745911%, 10.211182%)" offset="0.515625"/><stop stop-opacity="1" stop-color="rgb(91.226196%, 57.025146%, 10.092163%)" offset="0.523438"/><stop stop-opacity="1" stop-color="rgb(91.255188%, 57.304382%, 9.973145%)" offset="0.53125"/><stop stop-opacity="1" stop-color="rgb(91.285706%, 57.583618%, 9.854126%)" offset="0.539062"/><stop stop-opacity="1" stop-color="rgb(91.314697%, 57.862854%, 9.735107%)" offset="0.546875"/><stop stop-opacity="1" stop-color="rgb(91.345215%, 58.14209%, 9.616089%)" offset="0.554688"/><stop stop-opacity="1" stop-color="rgb(91.374207%, 58.421326%, 9.49707%)" offset="0.5625"/><stop stop-opacity="1" stop-color="rgb(91.404724%, 58.700562%, 9.378052%)" offset="0.570312"/><stop stop-opacity="1" stop-color="rgb(91.433716%, 58.978271%, 9.257507%)" offset="0.578125"/><stop stop-opacity="1" stop-color="rgb(91.464233%, 59.257507%, 9.138489%)" offset="0.585938"/><stop stop-opacity="1" stop-color="rgb(91.493225%, 59.536743%, 9.01947%)" offset="0.59375"/><stop stop-opacity="1" stop-color="rgb(91.523743%, 59.815979%, 8.900452%)" offset="0.601563"/><stop stop-opacity="1" stop-color="rgb(91.552734%, 60.095215%, 8.781433%)" offset="0.609375"/><stop stop-opacity="1" stop-color="rgb(91.583252%, 60.374451%, 8.662415%)" offset="0.617188"/><stop stop-opacity="1" stop-color="rgb(91.612244%, 60.653687%, 8.543396%)" offset="0.625"/><stop stop-opacity="1" stop-color="rgb(91.642761%, 60.932922%, 8.424377%)" offset="0.632812"/><stop stop-opacity="1" stop-color="rgb(91.671753%, 61.210632%, 8.305359%)" offset="0.640625"/><stop stop-opacity="1" stop-color="rgb(91.702271%, 61.489868%, 8.18634%)" offset="0.648438"/><stop stop-opacity="1" stop-color="rgb(91.731262%, 61.769104%, 8.067322%)" offset="0.65625"/><stop stop-opacity="1" stop-color="rgb(91.76178%, 62.04834%, 7.948303%)" offset="0.664062"/><stop stop-opacity="1" stop-color="rgb(91.792297%, 62.341309%, 7.823181%)" offset="0.671875"/><stop stop-opacity="1" stop-color="rgb(91.830444%, 62.684631%, 7.673645%)" offset="0.679688"/><stop stop-opacity="1" stop-color="rgb(91.874695%, 63.066101%, 7.505798%)" offset="0.6875"/><stop stop-opacity="1" stop-color="rgb(91.917419%, 63.449097%, 7.337952%)" offset="0.695312"/><stop stop-opacity="1" stop-color="rgb(91.960144%, 63.832092%, 7.170105%)" offset="0.703125"/><stop stop-opacity="1" stop-color="rgb(92.002869%, 64.215088%, 7.002258%)" offset="0.710937"/><stop stop-opacity="1" stop-color="rgb(92.045593%, 64.598083%, 6.834412%)" offset="0.71875"/><stop stop-opacity="1" stop-color="rgb(92.088318%, 64.981079%, 6.666565%)" offset="0.726562"/><stop stop-opacity="1" stop-color="rgb(92.132568%, 65.364075%, 6.498718%)" offset="0.734375"/><stop stop-opacity="1" stop-color="rgb(92.175293%, 65.74707%, 6.329346%)" offset="0.742188"/><stop stop-opacity="1" stop-color="rgb(92.218018%, 66.130066%, 6.161499%)" offset="0.75"/><stop stop-opacity="1" stop-color="rgb(92.260742%, 66.513062%, 5.993652%)" offset="0.757812"/><stop stop-opacity="1" stop-color="rgb(92.303467%, 66.894531%, 5.825806%)" offset="0.765625"/><stop stop-opacity="1" stop-color="rgb(92.346191%, 67.277527%, 5.657959%)" offset="0.773438"/><stop stop-opacity="1" stop-color="rgb(92.390442%, 67.660522%, 5.490112%)" offset="0.78125"/><stop stop-opacity="1" stop-color="rgb(92.433167%, 68.043518%, 5.322266%)" offset="0.789063"/><stop stop-opacity="1" stop-color="rgb(92.475891%, 68.426514%, 5.154419%)" offset="0.796875"/><stop stop-opacity="1" stop-color="rgb(92.518616%, 68.809509%, 4.986572%)" offset="0.804688"/><stop stop-opacity="1" stop-color="rgb(92.56134%, 69.192505%, 4.818726%)" offset="0.8125"/><stop stop-opacity="1" stop-color="rgb(92.604065%, 69.5755%, 4.650879%)" offset="0.820312"/><stop stop-opacity="1" stop-color="rgb(92.648315%, 69.958496%, 4.483032%)" offset="0.828125"/><stop stop-opacity="1" stop-color="rgb(92.69104%, 70.341492%, 4.31366%)" offset="0.835938"/><stop stop-opacity="1" stop-color="rgb(92.733765%, 70.722961%, 4.145813%)" offset="0.84375"/><stop stop-opacity="1" stop-color="rgb(92.776489%, 71.105957%, 3.977966%)" offset="0.851562"/><stop stop-opacity="1" stop-color="rgb(92.819214%, 71.488953%, 3.81012%)" offset="0.859375"/><stop stop-opacity="1" stop-color="rgb(92.861938%, 71.871948%, 3.642273%)" offset="0.867188"/><stop stop-opacity="1" stop-color="rgb(92.915344%, 72.299194%, 3.460693%)" offset="0.871094"/><stop stop-opacity="1" stop-color="rgb(92.945862%, 72.53418%, 3.363037%)" offset="0.875"/><stop stop-opacity="1" stop-color="rgb(92.980957%, 72.792053%, 3.257751%)" offset="0.878906"/><stop stop-opacity="1" stop-color="rgb(93.017578%, 73.051453%, 3.152466%)" offset="0.882812"/><stop stop-opacity="1" stop-color="rgb(93.054199%, 73.309326%, 3.04718%)" offset="0.886719"/><stop stop-opacity="1" stop-color="rgb(93.09082%, 73.5672%, 2.941895%)" offset="0.890625"/><stop stop-opacity="1" stop-color="rgb(93.125916%, 73.825073%, 2.836609%)" offset="0.894531"/><stop stop-opacity="1" stop-color="rgb(93.162537%, 74.084473%, 2.731323%)" offset="0.898437"/><stop stop-opacity="1" stop-color="rgb(93.197632%, 74.342346%, 2.626038%)" offset="0.902344"/><stop stop-opacity="1" stop-color="rgb(93.234253%, 74.601746%, 2.522278%)" offset="0.90625"/><stop stop-opacity="1" stop-color="rgb(93.269348%, 74.859619%, 2.416992%)" offset="0.910156"/><stop stop-opacity="1" stop-color="rgb(93.305969%, 75.119019%, 2.311707%)" offset="0.914062"/><stop stop-opacity="1" stop-color="rgb(93.34259%, 75.376892%, 2.206421%)" offset="0.917969"/><stop stop-opacity="1" stop-color="rgb(93.379211%, 75.634766%, 2.101135%)" offset="0.921875"/><stop stop-opacity="1" stop-color="rgb(93.414307%, 75.892639%, 1.99585%)" offset="0.925781"/><stop stop-opacity="1" stop-color="rgb(93.450928%, 76.152039%, 1.890564%)" offset="0.929688"/><stop stop-opacity="1" stop-color="rgb(93.486023%, 76.409912%, 1.785278%)" offset="0.933594"/><stop stop-opacity="1" stop-color="rgb(93.522644%, 76.669312%, 1.679993%)" offset="0.9375"/><stop stop-opacity="1" stop-color="rgb(93.557739%, 76.927185%, 1.574707%)" offset="0.941406"/><stop stop-opacity="1" stop-color="rgb(93.59436%, 77.185059%, 1.469421%)" offset="0.945312"/><stop stop-opacity="1" stop-color="rgb(93.630981%, 77.442932%, 1.364136%)" offset="0.949219"/><stop stop-opacity="1" stop-color="rgb(93.667603%, 77.702332%, 1.25885%)" offset="0.953125"/><stop stop-opacity="1" stop-color="rgb(93.702698%, 77.960205%, 1.153564%)" offset="0.957031"/><stop stop-opacity="1" stop-color="rgb(93.739319%, 78.219604%, 1.049805%)" offset="0.960938"/><stop stop-opacity="1" stop-color="rgb(93.774414%, 78.477478%, 0.944519%)" offset="0.964844"/><stop stop-opacity="1" stop-color="rgb(93.811035%, 78.736877%, 0.839233%)" offset="0.96875"/><stop stop-opacity="1" stop-color="rgb(93.847656%, 78.994751%, 0.733948%)" offset="0.972656"/><stop stop-opacity="1" stop-color="rgb(93.884277%, 79.252625%, 0.628662%)" offset="0.976562"/><stop stop-opacity="1" stop-color="rgb(93.919373%, 79.510498%, 0.523376%)" offset="0.980469"/><stop stop-opacity="1" stop-color="rgb(93.955994%, 79.769897%, 0.418091%)" offset="0.984375"/><stop stop-opacity="1" stop-color="rgb(93.991089%, 80.027771%, 0.312805%)" offset="0.988281"/><stop stop-opacity="1" stop-color="rgb(94.02771%, 80.28717%, 0.20752%)" offset="0.992188"/><stop stop-opacity="1" stop-color="rgb(94.062805%, 80.543518%, 0.10376%)" offset="0.996094"/><stop stop-opacity="1" stop-color="rgb(94.099426%, 80.799866%, 0%)" offset="1"/></linearGradient></defs><g clip-path="url(#96b85a9d0d)"><rect x="-37.5" width="450" fill="#ffffff" y="-37.499999" height="449.999989" fill-opacity="1"/></g><g clip-path="url(#0793d5b946)"><g clip-path="url(#5767fe1ee0)"><path fill="url(#17c51c912f)" d="M 9.5 130.699219 L 9.5 243.832031 L 365.710938 243.832031 L 365.710938 130.699219 Z M 9.5 130.699219 " fill-rule="nonzero"/></g></g></svg>